<svg xmlns="http://www.w3.org/2000/svg" viewBox="0 0 145.86 145.85"><defs><style>.cls-1{fill:#393e46;}</style></defs><g id="Capa_2" data-name="Capa 2"><g id="Capa_1-2" data-name="Capa 1"><path class="cls-1" d="M140.09,57.75c-4.36,0-8.71,0-13.06,0a.87.87,0,0,1-1-.75,51.22,51.22,0,0,0-4.43-10.33.81.81,0,0,1,.18-1.17q4.68-4.62,9.3-9.28a5.47,5.47,0,0,0,0-8.25L118,14.84a5.61,5.61,0,0,0-8.46,0q-4.68,4.67-9.34,9.36a.87.87,0,0,1-1.24.18,50.94,50.94,0,0,0-10-4.13.94.94,0,0,1-.83-1.1c0-4.55,0-9.09,0-13.63a5.44,5.44,0,0,0-4-5.36L83.55,0H62.3a14.4,14.4,0,0,0-1.72.7,5.21,5.21,0,0,0-2.82,4.77q0,6.78,0,13.54a1,1,0,0,1-.87,1.16,50.15,50.15,0,0,0-10.12,4.1.88.88,0,0,1-1.24-.19c-3.06-3.1-6.14-6.16-9.22-9.24a5.61,5.61,0,0,0-8.46,0L14.8,27.94a5.45,5.45,0,0,0,0,8.3c3,3,5.95,6,9,8.93A.93.93,0,0,1,24,46.53,49.25,49.25,0,0,0,19.44,57a.92.92,0,0,1-1.07.77c-4.14,0-8.27,0-12.41,0C2.84,57.75,1,59.1.12,62.08A.94.94,0,0,1,0,62.3V83.55a.82.82,0,0,1,.12.2,5.44,5.44,0,0,0,5.76,4.34c4,0,7.9,0,11.84,0,.77,0,1.11.18,1.32,1a50.26,50.26,0,0,0,4.33,10.81,1,1,0,0,1-.19,1.37c-2.86,2.81-5.68,5.64-8.5,8.48a5.42,5.42,0,0,0,0,8.13q6.57,6.55,13.13,13.13c2.61,2.6,5.89,2.59,8.51,0s5.48-5.46,8.19-8.21a.76.76,0,0,1,1.1-.16A52.44,52.44,0,0,0,57,127.28a.86.86,0,0,1,.75,1c0,3.87,0,7.73,0,11.6,0,3.71,2.25,6,5.95,6H82.18c3.6,0,5.9-2.26,5.91-5.85,0-3.92,0-7.84,0-11.76,0-.68.24-.92.85-1.09A51.82,51.82,0,0,0,100,122.42a.8.8,0,0,1,1.17.16c2.77,2.81,5.57,5.59,8.36,8.39a5.58,5.58,0,0,0,8.46,0l13-13c2.69-2.7,2.7-5.86,0-8.56-2.86-2.87-5.72-5.74-8.61-8.59a.85.85,0,0,1-.19-1.17c1.17-2.6,2.32-5.22,3.4-7.87.49-1.19.8-2.46,1.21-3.73h.9c4.16,0,8.33,0,12.49,0a5.46,5.46,0,0,0,5.71-5.72V63.56A5.45,5.45,0,0,0,140.09,57.75ZM73,101.77A28.85,28.85,0,1,1,101.78,73,28.88,28.88,0,0,1,73,101.77Z"/></g></g></svg>